Coordinates
version=1
nRows=8
nColumns=40
inDegrees=yes

Units are S.I. units (second, meters, Newtons, ...)
Angles are in degrees.

endheader
time	pelvis_tilt	pelvis_list	pelvis_rotation	pelvis_tx	pelvis_ty	pelvis_tz	hip_flexion_r	hip_adduction_r	hip_rotation_r	knee_angle_r	knee_angle_r_beta	ankle_angle_r	subtalar_angle_r	mtp_angle_r	hip_flexion_l	hip_adduction_l	hip_rotation_l	knee_angle_l	knee_angle_l_beta	ankle_angle_l	subtalar_angle_l	mtp_angle_l	lumbar_extension	lumbar_bending	lumbar_rotation	arm_flex_r	arm_add_r	arm_rot_r	elbow_flex_r	pro_sup_r	wrist_flex_r	wrist_dev_r	arm_flex_l	arm_add_l	arm_rot_l	elbow_flex_l	pro_sup_l	wrist_flex_l	wrist_dev_l
     18.27500000	     -2.95360484	     -2.99248581	     -2.35188192	      1.06055663	      0.93206667	      0.41763484	     24.96774304	     -4.49456896	    -11.85988995	     12.67987045	     12.67987045	      0.99504015	      7.10595539	      5.66660561	      3.56902735	     -4.12782940	    -12.04463750	     13.72794572	     13.72794572	     14.77954171	     -2.50596034	     -8.02583714	    -10.52871076	      0.80177119	     -0.31832648	    -12.57050710	    -14.33863928	     -7.54662866	     30.13443404	     46.86089207	      0.00000000	      0.00000000	     20.47414906	    -14.78730371	     -4.12517002	     61.56178239	     45.93240935	      0.00000000	      0.00000000
     18.28835714	     -2.82978406	     -2.78209504	     -2.30139883	      1.06202797	      0.93146699	      0.41964492	     24.47903057	     -4.65185138	    -11.73035733	     14.20358406	     14.20358406	      1.16153362	      6.41685590	      5.03095439	      2.69385294	     -3.96728052	    -12.17543044	     13.22743120	     13.22743120	     15.00530582	     -2.12440276	     -8.04628768	    -10.37819037	      0.68077250	     -0.18997343	    -12.46853897	    -14.16290955	     -7.46625381	     30.24216086	     46.84134604	      0.00000000	      0.00000000	     20.66060681	    -14.64425093	     -4.20050954	     62.19420940	     45.96220217	      0.00000000	      0.00000000
     18.30171429	     -2.71906572	     -2.71506740	     -2.18160647	      1.06369897	      0.93076011	      0.42178715	     23.80935952	     -4.63745716	    -11.67843826	     15.43311017	     15.43311017	      1.38428310	      5.89970210	      4.58017023	      1.90755522	     -3.99315828	    -12.14628109	     12.89948329	     12.89948329	     15.34179733	     -1.82730961	     -8.10429146	    -10.20670177	      0.75482823	     -0.15255334	    -12.26442868	    -14.00022290	     -7.42516118	     30.45191172	     46.82571905	      0.00000000	      0.00000000	     20.73189589	    -14.53571176	     -4.23275004	     62.76334510	     45.98030081	      0.00000000	      0.00000000
     18.31507143	     -2.61431354	     -2.44812189	     -2.12513627	      1.06551655	      0.92994371	      0.42404525	     23.25608669	     -4.79024356	    -11.34844103	     16.72709216	     16.72709216	      1.77124314	      5.26569820	      3.93381510	      1.02868763	     -3.80292821	    -12.36020297	     12.39720399	     12.39720399	     15.58450087	     -1.22905900	     -8.05569586	    -10.02275176	      0.57887692	     -0.08478278	    -12.06521447	    -13.85354641	     -7.38431759	     30.91951768	     46.79453240	      0.00000000	      0.00000000	     20.50862108	    -14.51671797	     -4.36006409	     63.92193888	     46.01803695	      0.00000000	      0.00000000
     18.32842857	     -2.52512096	     -2.40943105	     -1.99241991	      1.06736614	      0.92913391	      0.42647259	     22.49633644	     -4.65652610	    -11.17531334	     17.45043252	     17.45043252	      1.97745249	      4.75502586	      2.88441369	      0.37743556	     -3.96552864	    -12.64887430	     12.34016400	     12.34016400	     16.17495681	     -0.36483664	     -7.68099736	     -9.89357538	      0.67044297	     -0.50458565	    -11.69298770	    -13.81158361	     -7.07058997	     32.21166987	     46.68403284	      0.00000000	      0.00000000	     19.39425034	    -14.77973845	     -4.95812776	     66.49061013	     46.14630096	      0.00000000	      0.00000000
     18.34178571	     -2.49335532	     -2.34124167	     -1.87623214	      1.06914034	      0.92834260	      0.42903398	     21.92520018	     -4.56928227	    -11.03811487	     18.19504670	     18.19504670	      2.60003615	      4.49164606	      2.41731826	     -0.18696445	     -4.07102081	    -12.70400919	     12.27728124	     12.27728124	     16.49371375	     -0.03855734	     -7.50124044	     -9.64525175	      0.74489710	     -0.41193084	    -11.21460424	    -13.72078601	     -6.89218637	     32.53544841	     46.65280089	      0.00000000	      0.00000000	     19.28761344	    -14.65523629	     -5.08727121	     66.82799667	     46.17506075	      0.00000000	      0.00000000
     18.35514286	     -2.48497225	     -2.43232208	     -1.74846925	      1.07073526	      0.92770023	      0.43176319	     21.37309680	     -4.30152333	    -11.00723488	     18.67849443	     18.67849443	      3.20634328	      4.34309704	      2.07308959	     -0.62408609	     -4.37954473	    -12.65460661	     12.37550753	     12.37550753	     16.74911758	      0.02789493	     -7.42382809	     -9.41563268	      1.00302397	     -0.25089451	    -10.61299367	    -13.64059456	     -6.82482028	     32.84829434	     46.63699749	      0.00000000	      0.00000000	     19.15333528	    -14.45481631	     -5.08785844	     66.98479482	     46.18134399	      0.00000000	      0.00000000
     18.36850000	     -2.46938248	     -2.54961031	     -1.66229932	      1.07221191	      0.92720563	      0.43482579	     20.89807978	     -3.94415721	    -10.79268190	     19.03977740	     19.03977740	      3.55912505	      3.88271612	      0.80177040	     -0.72331873	     -4.94216257	    -13.33207208	     13.29712540	     13.29712540	     18.27125323	      1.52287603	     -5.09474716	     -9.27957878	      1.23139267	     -0.65886610	     -9.82868147	    -13.85139922	     -5.54879755	     34.05008423	     46.45241142	      0.00000000	      0.00000000	     18.14870873	    -14.48821671	     -6.34722957	     68.54196016	     46.38620530	      0.00000000	      0.00000000
